<svg width="58" height="55" viewBox="0 0 58 55" fill="none" xmlns="http://www.w3.org/2000/svg">
<path d="M39.1733 26.7106C39.1733 26.567 39.3181 26.4234 39.4629 26.4234C39.6076 26.4234 39.6076 26.4234 39.7524 26.4234C41.4894 26.1362 43.2265 24.4129 43.3713 22.5461C43.3713 21.5409 43.0818 20.5356 42.5027 19.9612C42.358 19.8176 42.358 19.5304 42.6475 19.5304C42.7923 19.5304 42.7923 19.3868 42.7923 19.3868C48.4378 15.6531 52.7805 8.32934 53.2147 7.61133C53.2147 7.61133 53.2147 7.61133 53.3595 7.61133C54.9518 8.90376 55.2413 11.345 53.7938 13.4991C52.7805 14.9351 50.4644 16.6583 47.8587 18.0944C47.8587 18.3816 47.8587 18.6688 47.8587 18.956C53.07 17.8072 55.9651 14.0735 56.3994 13.4991H56.5441C57.7022 15.3659 57.1232 17.9508 55.2413 19.0996C53.649 20.1048 50.8986 20.6792 47.714 21.11C47.714 21.3972 47.5692 21.6845 47.5692 21.9717C52.6357 22.6897 56.3994 20.6792 57.1232 20.392H57.2679C57.7022 22.6897 56.5441 24.7001 54.228 25.1309C51.9119 25.5617 46.9902 24.2693 46.9902 24.2693C46.8454 24.5565 46.8454 24.8437 46.7007 24.9873C50.0301 27.285 54.6623 26.9978 55.3861 26.8542C55.3861 26.8542 55.5308 26.8542 55.5308 26.9978C55.6756 29.8698 53.3595 30.5879 51.3329 30.3007C49.5958 30.0134 47.135 28.5774 45.5426 26.9978C45.3979 27.285 45.1084 27.4286 44.9636 27.5722C46.5559 30.8751 50.4644 32.3111 51.7672 32.4547C51.7672 32.4547 51.9119 32.5983 51.7672 32.5983C50.8986 34.4652 49.0168 35.1832 46.8454 33.7471C45.5426 33.0291 44.0951 31.0187 43.2265 28.8646C42.937 29.0082 42.7923 29.1518 42.5027 29.2954C42.937 33.3163 46.1217 36.0448 46.7007 36.4756C46.7007 36.4756 46.7007 36.4756 46.7007 36.6192C46.7007 36.6192 46.7007 36.6192 46.7007 36.7628C45.6874 38.3424 43.2265 38.3424 41.9237 36.1884C41.1999 34.896 40.6209 32.4547 40.4762 29.8698C40.1866 29.8698 39.8971 29.8698 39.6076 30.0134C39.4629 30.0134 39.3181 29.8698 39.3181 29.7262V26.7106H39.1733Z" fill="#385BAE"/>
<path d="M18.1845 26.7106C18.1845 26.567 18.0397 26.4234 17.895 26.4234C17.7502 26.4234 17.7502 26.4234 17.6055 26.4234C15.8684 25.9926 14.1313 24.4129 13.9866 22.5461C13.9866 21.5409 14.2761 20.5356 14.8551 19.9612C14.9998 19.8176 14.9998 19.5304 14.7103 19.5304C14.5656 19.5304 14.5656 19.3868 14.5656 19.3868C8.92011 15.6531 4.57741 8.32934 4.14314 7.61133C4.14314 7.61133 4.14314 7.61133 3.99839 7.61133C2.40606 8.76015 2.11655 11.345 3.56412 13.4991C4.57741 14.9351 6.89352 16.6583 9.49914 18.0944C9.49914 18.3816 9.49914 18.6688 9.49914 18.956C4.2879 17.8072 1.39277 14.0735 0.958501 13.4991H0.813744C-0.344309 15.3659 0.234718 17.9508 2.11655 19.0996C3.70887 20.1048 6.45925 20.6792 9.6439 21.11C9.6439 21.3972 9.78865 21.6845 9.78865 21.9717C4.72217 22.6897 0.958501 20.6792 0.234718 20.392H0.089961C-0.344309 22.6897 0.813744 24.7001 3.12985 25.1309C5.44595 25.5617 10.3677 24.2693 10.3677 24.2693C10.5124 24.5565 10.5124 24.8437 10.6572 24.9873C7.32779 27.285 2.69558 26.9978 1.97179 26.8542C1.97179 26.8542 1.82704 26.8542 1.82704 26.9978C1.68228 29.8698 3.99839 30.5879 6.02498 30.3007C7.76206 30.0134 10.2229 28.5774 11.8152 26.9978C11.96 27.285 12.2495 27.4286 12.3943 27.5722C10.8019 30.8751 6.89352 32.3111 5.59071 32.4547C5.59071 32.4547 5.44595 32.5983 5.59071 32.5983C6.45925 34.4652 8.34109 35.1832 10.5124 33.7471C11.8152 33.0291 13.2628 31.0187 14.1314 28.8646C14.4208 29.0082 14.5656 29.1518 14.8551 29.2954C14.4208 33.3163 11.2362 36.0448 10.6572 36.4756C10.6572 36.4756 10.6572 36.4756 10.6572 36.6192C10.6572 36.6192 10.6572 36.6192 10.6572 36.7628C11.6705 38.3424 14.1314 38.3424 15.4341 36.1884C16.1579 34.896 16.7369 32.4547 16.8817 29.8698C17.1712 29.8698 17.4607 29.8698 17.7502 30.0134C17.895 30.0134 18.0397 29.8698 18.0397 29.7262V26.7106H18.1845Z" fill="#385BAE"/>
<path d="M17.8946 9.19061H21.6583C24.8429 9.19061 26.4352 7.18017 26.8695 5.45693H30.1989C30.6332 7.18017 32.0807 9.19061 35.4101 9.19061H39.3186C39.3186 9.19061 40.0424 8.32899 40.1871 7.89818C40.7661 6.31855 40.0424 5.45693 38.8843 5.45693L37.4367 6.74936L35.9892 5.45693C34.8311 5.45693 34.1073 6.17494 34.6864 7.89818C34.8311 8.04179 34.9759 8.4726 35.1206 8.6162C33.8178 8.4726 31.936 7.46737 31.6465 5.45693C31.6465 5.45693 32.6598 3.87729 32.9493 3.15927C33.6731 1.00522 32.515 0 30.7779 0L28.6066 2.58486L26.2905 0C24.5534 0 23.3953 1.00522 24.2639 3.30288C24.5534 4.02089 25.5667 5.60053 25.5667 5.60053C25.1324 7.61098 23.3953 8.4726 22.0925 8.7598C22.2373 8.4726 22.5268 8.18539 22.5268 8.04179C23.1058 6.46215 22.382 5.60053 21.224 5.60053L19.7764 6.89296L18.3289 5.60053C17.1708 5.60053 16.447 6.31855 17.0261 8.04179C17.1708 8.32899 17.8946 9.19061 17.8946 9.19061Z" fill="#385BAE"/>
<path d="M24.1194 19.9613H27.7383C27.8831 19.9613 28.0279 19.8177 28.0279 19.6741C27.3041 16.802 25.8565 14.5044 24.2642 13.212C25.4222 12.6375 26.725 11.0579 26.725 10.1963C22.8166 11.6323 15.2893 9.47827 14.5655 12.6375C14.4207 13.3556 14.7102 14.3608 15.1445 14.648C15.1445 14.3608 15.5788 13.6428 16.5921 13.4992C20.0662 12.9248 23.2509 16.3712 23.8299 19.6741C23.9747 19.8177 23.9747 19.9613 24.1194 19.9613Z" fill="#385BAE"/>
<path d="M42.6484 12.6375C41.9246 9.33467 34.2525 11.4887 30.4888 10.1963C30.3441 11.2015 31.6469 12.6375 32.9497 13.212C31.5021 14.5044 30.0546 16.802 29.186 19.6741C29.186 19.8177 29.3308 19.9613 29.4755 19.9613H33.0945C33.2392 19.9613 33.384 19.8177 33.384 19.8177C33.963 16.5148 37.1477 13.212 40.6218 13.6428C41.6351 13.7864 42.0694 14.5044 42.0694 14.7916C42.3589 14.3608 42.6484 13.3556 42.6484 12.6375Z" fill="#385BAE"/>
<path d="M33.0941 24.4123C31.0675 23.8379 28.6066 23.8379 28.6066 23.8379C28.6066 23.8379 26.1458 23.8379 24.1192 24.4123C21.9478 25.1303 19.7765 23.9815 19.0527 23.5507C18.9079 23.4071 18.7632 23.5507 18.7632 23.6943C18.9079 24.6995 19.7765 26.9972 23.2506 27.8588C26.58 28.5768 28.0276 32.3105 28.4619 33.8901C28.4619 34.0337 28.7514 34.0337 28.8961 33.8901C29.3304 32.3105 30.9227 28.7204 34.1074 27.8588C37.5815 26.9972 38.4501 24.6995 38.5948 23.6943C38.5948 23.5507 38.4501 23.4071 38.3053 23.5507C37.4368 24.1251 35.4102 25.1303 33.0941 24.4123Z" fill="#385BAE"/>
<path d="M31.9355 31.0181C32.0803 31.1617 32.3698 31.3053 32.6593 31.3053C33.3831 31.3053 33.9621 30.7309 33.9621 30.0128C33.9621 29.8692 33.9621 29.7256 33.8174 29.582C33.0936 29.8692 32.3698 30.4437 31.9355 31.0181Z" fill="#385BAE"/>
<path d="M35.2655 29.008C35.4102 29.2952 35.555 29.5824 35.555 30.0132C35.555 31.5929 34.2522 32.8853 32.6599 32.8853C32.0808 32.8853 31.5018 32.7417 31.0675 32.3109C30.778 32.8853 30.4885 33.4597 30.3438 33.8905C31.0675 34.3213 31.7913 34.6085 32.6599 34.6085C35.1207 34.6085 37.1473 32.5981 37.1473 30.1568C37.1473 29.5824 37.0026 29.008 36.713 28.4336C36.4235 28.7208 35.8445 28.8644 35.2655 29.008Z" fill="#385BAE"/>
<path d="M26.1454 32.4536C25.7112 32.7408 25.1321 32.8844 24.5531 32.8844C22.9608 32.8844 21.658 31.5919 21.658 30.0123C21.658 29.7251 21.8027 29.2943 21.9475 29.0071C21.3685 28.8635 20.7894 28.5763 20.3552 28.2891C20.0657 28.8635 19.9209 29.4379 19.9209 30.0123C19.9209 32.4536 21.9475 34.464 24.4084 34.464C25.2769 34.464 26.0007 34.1768 26.7245 33.746C26.7245 33.4588 26.4349 33.028 26.1454 32.4536Z" fill="#385BAE"/>
<path d="M23.3948 29.582C23.3948 29.7256 23.25 29.8692 23.25 30.0128C23.25 30.7309 23.829 31.3053 24.5528 31.3053C24.8423 31.3053 25.1318 31.1617 25.2766 31.0181C24.8423 30.4437 24.2633 29.8692 23.3948 29.582Z" fill="#385BAE"/>
<path fill-rule="evenodd" clip-rule="evenodd" d="M50.4655 4.16442C50.6102 4.16442 50.6102 4.16442 50.4655 4.16442C48.8732 3.3028 49.3074 2.29758 48.4389 1.43596C47.4256 0.574343 45.978 0.574343 45.6885 0.43074C43.9514 0.287136 43.5172 0.574343 43.3724 0.717946C43.0829 1.00515 42.5039 1.57956 42.2144 2.72839C41.9248 3.87721 42.0696 4.30802 42.3591 4.45163H42.5039C42.6486 4.59523 43.3724 4.30802 43.3724 4.30802C43.8067 4.45163 44.5305 4.73883 44.3857 6.31847C44.2409 8.32892 41.3458 8.75973 40.4773 8.90333L40.3325 9.19054C41.6353 9.19054 45.399 8.75973 45.8333 6.89288C46.4123 5.02604 45.5438 4.30802 45.5438 4.30802C45.2542 4.02082 44.2409 4.02082 43.6619 4.16442C43.6619 4.16442 43.2276 3.73361 43.6619 2.72839C44.2409 1.00515 44.5305 1.00515 45.8333 1.14876C45.978 1.14876 46.1228 1.14876 46.2675 1.29236C47.1361 1.86677 46.9913 3.01559 47.2808 3.87721C47.8599 6.46207 49.3074 6.46207 50.3207 6.74928C50.4655 6.74928 50.4655 6.60568 50.4655 6.60568C49.7417 6.03126 48.8732 5.16964 49.0179 4.30802C49.0179 4.30802 49.1627 4.16442 49.1627 4.30802C49.1627 4.16442 49.7417 4.45163 50.4655 4.16442Z" fill="#385BAE"/>
<path fill-rule="evenodd" clip-rule="evenodd" d="M6.60417 4.16437C6.45942 4.16437 6.45942 4.16437 6.60417 4.16437C8.05174 3.30275 7.61747 2.44113 8.63077 1.57951C9.64406 0.717898 11.0916 0.717898 11.3811 0.574294C13.1182 0.430691 13.5525 0.717898 13.6972 0.861501C13.9868 1.14871 14.5658 1.72312 14.8553 2.87194C15.1448 4.02077 15.0001 4.45158 14.7106 4.59518H14.5658C14.421 4.59518 13.6972 4.30798 13.6972 4.30798C13.263 4.45158 12.5392 4.73879 12.684 6.31842C12.9735 8.47247 15.8686 8.90328 16.5924 8.90328L16.7372 9.19049C15.4343 9.19049 11.6707 8.75968 11.2364 6.89284C10.6574 5.02599 11.5259 4.30798 11.5259 4.30798C11.8154 4.02077 12.8287 4.02077 13.4077 4.16437C13.4077 4.16437 13.842 3.73356 13.4077 2.72834C12.9735 0.861501 12.684 1.0051 11.3811 1.0051C11.2364 1.0051 11.0916 1.0051 10.9469 1.14871C10.0783 1.72312 10.2231 2.87194 10.0783 3.58996C9.49931 6.17482 8.05174 6.17482 7.03844 6.46203C6.89369 6.46203 6.89369 6.31842 6.89369 6.31842C7.61747 5.74401 8.48601 4.88239 8.34125 4.02077C8.34125 4.02077 8.1965 3.87717 8.1965 4.02077C8.05174 4.16437 7.32796 4.45158 6.60417 4.16437Z" fill="#385BAE"/>
<path d="M45.1097 42.65L43.3726 44.086L41.6355 42.7936C40.9117 43.0808 40.4775 43.7988 40.3327 44.5168C39.3194 44.6604 36.569 44.086 36.8586 43.6552C39.8985 39.4907 37.5823 36.9059 34.832 37.0495C34.3977 37.6239 33.3844 38.4855 32.3711 39.0599C30.055 40.2087 29.0417 41.0704 28.6074 41.3576C28.3179 41.0704 27.1599 40.2087 24.8438 39.0599C23.6857 38.4855 22.8172 37.7675 22.3829 37.0495C19.6325 37.0495 17.4612 39.4907 20.5011 43.6552C20.7906 44.086 17.8954 44.6604 16.5926 44.5168C16.3031 44.086 15.7241 43.9424 15.1451 43.9424C14.8556 43.9424 14.7108 43.9424 14.4213 44.086L9.06528 39.0599V38.9163C9.35479 38.3419 8.92052 37.7675 8.63101 37.7675C8.92052 37.3367 8.92052 35.6134 7.03869 35.1826C7.03869 35.4698 7.18344 36.3314 7.18344 36.3314C7.18344 36.3314 5.73588 35.6134 5.01209 36.1878C4.43307 36.9059 5.30161 38.3419 5.30161 38.3419C5.30161 38.3419 4.57782 38.3419 4.14355 38.3419C4.72258 40.2087 6.45966 40.0651 6.89393 39.6343C6.89393 39.9215 7.47296 40.3523 8.05198 40.0651L8.3415 39.9215L13.5527 44.804C13.2632 45.0913 13.2632 45.5221 13.2632 46.0965C13.408 46.8145 13.987 47.3889 14.7108 47.5325C15.2898 47.6761 15.7241 47.5325 16.1584 47.2453L17.4612 48.5377C17.6059 48.6813 17.7507 48.6813 17.8954 48.6813C18.185 48.6813 18.4745 48.3941 18.4745 48.1069C18.4745 47.9633 18.3297 47.8197 18.3297 47.8197L16.8822 46.5273C18.0402 45.8093 20.0668 45.2349 21.8039 45.2349C22.0934 45.2349 22.2381 44.9476 22.0934 44.6604C21.3696 42.7936 22.9619 41.3576 24.699 42.5064C25.1333 42.7936 25.4228 43.0808 25.8571 43.9424C24.2647 44.6604 21.2248 47.6761 21.0801 48.3941C21.6591 50.261 23.2514 50.979 23.2514 50.979C22.8172 50.1174 22.9619 48.2505 25.5675 46.9581C23.9752 48.5377 23.3962 49.9738 23.8305 51.2662C24.2647 52.415 25.4228 52.9894 26.4361 52.9894C25.7123 50.979 26.0018 49.1121 27.4494 47.6761C26.8704 49.2557 26.0018 54.1383 28.4627 54.9999C30.7788 54.1383 30.055 49.2557 29.476 47.6761C30.7788 49.1121 31.0683 50.979 30.4893 52.9894C31.3578 52.9894 32.6606 52.415 33.0949 51.2662C33.5292 49.9738 32.9501 48.5377 31.3578 46.9581C33.9634 48.2505 34.1082 50.1174 33.6739 50.979C33.6739 50.979 35.411 50.4046 35.8453 48.3941C35.7005 47.6761 32.8054 44.804 31.2131 44.086C31.6473 43.2244 31.9368 42.9372 32.3711 42.65C34.1082 41.5012 35.8453 42.9372 34.9767 44.804C34.832 45.0913 34.9767 45.3785 35.2662 45.3785C37.2928 45.3785 39.6089 46.0965 40.6222 47.1017C41.2013 47.9633 42.3593 48.5377 43.6621 48.5377C45.1097 48.3941 46.2677 47.2453 46.4125 45.9529C46.702 44.3732 45.9782 43.2244 45.1097 42.65Z" fill="#385BAE"/>
<path d="M44.5305 41.645L43.3724 40.3525L42.2144 41.645L43.3724 42.6502L44.5305 41.645Z" fill="#385BAE"/>
</svg>
