<svg width="20" height="20" viewBox="0 0 20 20" fill="none" xmlns="http://www.w3.org/2000/svg">
<path d="M9.99821 1.66553C9.11154 1.66553 8.26155 1.94886 7.54989 2.47302C6.69072 2.60969 5.93321 2.99636 5.31071 3.61886C4.68821 4.24136 4.30154 5.0247 4.16488 5.88387C3.64154 6.59554 3.33154 7.44553 3.33154 8.33219C3.33154 9.21886 3.64154 10.0689 4.16488 10.7805C4.30154 11.6397 4.66237 12.423 5.28487 13.0455C5.4432 13.2039 5.65154 13.3639 5.83154 13.4889V17.4989C5.83154 17.9589 6.20488 18.3322 6.66488 18.3322H7.49821C7.58738 18.3322 7.67405 18.3089 7.75822 18.2805L9.99821 17.5505L12.2382 18.2805C12.3224 18.308 12.409 18.3322 12.4982 18.3322H13.3315C13.7915 18.3322 14.1649 17.9589 14.1649 17.4989V13.4889C14.3449 13.3639 14.499 13.2272 14.6599 13.0722C15.3199 12.4322 15.7207 11.6139 15.8574 10.7539C16.3807 10.0422 16.6649 9.21886 16.6649 8.33219C16.6649 7.44553 16.3549 6.59637 15.8315 5.88387C15.6949 5.0247 15.334 4.26719 14.7115 3.64469C14.089 3.02219 13.3057 2.60969 12.4465 2.47302C11.7349 1.94969 10.8849 1.66553 9.99821 1.66553ZM9.99821 3.33219C10.569 3.33219 11.1249 3.54969 11.5865 3.93136C11.7132 4.03552 11.8657 4.09635 12.0299 4.11385C12.6124 4.17385 13.1115 4.41387 13.514 4.81637C13.9165 5.21887 14.1566 5.71804 14.2166 6.30054C14.2341 6.4647 14.2949 6.61719 14.399 6.74386C14.7807 7.20552 14.9982 7.76136 14.9982 8.33219C14.9982 8.90303 14.7807 9.45887 14.399 9.92053C14.2949 10.0472 14.2341 10.1997 14.2166 10.3639C14.1566 10.9464 13.9165 11.4455 13.514 11.848C13.1115 12.2505 12.6124 12.4905 12.0299 12.5505C11.8657 12.568 11.7132 12.6289 11.5865 12.733C11.1249 13.1147 10.5699 13.3322 9.99821 13.3322C9.42738 13.3322 8.8707 13.1147 8.40987 12.733C8.2832 12.6289 8.13072 12.568 7.96655 12.5505C7.38405 12.4905 6.88488 12.2505 6.48238 11.848C6.07988 11.4455 5.83987 10.9464 5.77987 10.3639C5.76237 10.1997 5.70154 10.0472 5.59737 9.92053C5.2157 9.4597 4.99821 8.90303 4.99821 8.33219C4.99821 7.76136 5.2157 7.20552 5.59737 6.74386C5.70154 6.61719 5.76237 6.4647 5.77987 6.30054C5.83987 5.71804 6.07988 5.21887 6.48238 4.81637C6.88488 4.41387 7.38405 4.17385 7.96655 4.11385C8.13072 4.09635 8.2832 4.03552 8.40987 3.93136C8.87154 3.54969 9.42654 3.33219 9.99821 3.33219ZM9.99821 5.0247C8.15738 5.0247 6.66488 6.5172 6.66488 8.35803C6.66488 10.1989 8.15738 11.6914 9.99821 11.6914C11.839 11.6914 13.3315 10.1989 13.3315 8.35803C13.3315 6.5172 11.839 5.0247 9.99821 5.0247ZM9.99821 6.69137C10.919 6.69137 11.6649 7.43803 11.6649 8.35803C11.6649 9.27887 10.919 10.0247 9.99821 10.0247C9.07738 10.0247 8.33154 9.27887 8.33154 8.35803C8.33154 7.43803 9.07738 6.69137 9.99821 6.69137ZM7.49821 14.1655C7.52571 14.1705 7.54904 14.1872 7.57654 14.1914C8.2882 14.7147 9.11154 14.9989 9.99821 14.9989C10.8849 14.9989 11.7349 14.7147 12.4465 14.1914C12.474 14.1872 12.4707 14.1705 12.4982 14.1655V16.6139L10.2582 15.8839C10.0874 15.8272 9.90903 15.8272 9.7382 15.8839L7.49821 16.6397V14.1655Z" fill="#6887BA"/>
</svg>
