<svg width="20" height="20" viewBox="0 0 20 20" fill="none" xmlns="http://www.w3.org/2000/svg">
<path d="M6.67167 1.67871C6.21167 1.67871 5.83834 2.05204 5.83834 2.51204C3.9975 2.51204 2.505 4.00454 2.505 5.84538V7.51204V14.1787C2.505 16.0187 3.9975 17.512 5.83834 17.512H14.1717C16.0125 17.512 17.505 16.0195 17.505 14.1787V7.51204V5.84538C17.505 4.00454 16.0125 2.51204 14.1717 2.51204C14.1717 2.05204 13.7983 1.67871 13.3383 1.67871C12.8783 1.67871 12.505 2.05204 12.505 2.51204H7.505C7.505 2.05204 7.13167 1.67871 6.67167 1.67871ZM5.83834 4.17871C5.83834 4.63871 6.21167 5.01204 6.67167 5.01204C7.13167 5.01204 7.505 4.63871 7.505 4.17871H12.505C12.505 4.63871 12.8783 5.01204 13.3383 5.01204C13.7983 5.01204 14.1717 4.63871 14.1717 4.17871C15.0925 4.17871 15.8383 4.92454 15.8383 5.84538V6.67871C14.235 6.67871 5.775 6.67871 4.17167 6.67871V5.84538C4.17167 4.92454 4.9175 4.17871 5.83834 4.17871ZM4.17167 8.34538C5.775 8.34538 14.235 8.34538 15.8383 8.34538V14.1787C15.8383 15.0979 15.0925 15.8454 14.1717 15.8454H5.83834C4.9175 15.8454 4.17167 15.0995 4.17167 14.1787V8.34538ZM12.505 10.012C12.045 10.012 11.6717 10.3854 11.6717 10.8454V11.6787C11.6717 12.1387 12.045 12.512 12.505 12.512H13.3383C13.7983 12.512 14.1717 12.1387 14.1717 11.6787V10.8454C14.1717 10.3854 13.7983 10.012 13.3383 10.012H12.505Z" fill="#6887BA"/>
</svg>
