<svg width="20" height="20" viewBox="0 0 20 20" fill="none" xmlns="http://www.w3.org/2000/svg">
<path d="M12.9158 2.44141C10.8447 2.44141 9.16577 4.12057 9.16577 6.19141C9.16577 8.26224 10.8447 9.94141 12.9158 9.94141C14.9868 9.94141 16.6658 8.26224 16.6658 6.19141C16.6658 4.12057 14.9868 2.44141 12.9158 2.44141ZM6.66577 3.27474C4.82485 3.27474 3.33244 4.76724 3.33244 6.60807C3.33244 8.44891 4.82485 9.94141 6.66577 9.94141C7.35694 9.94141 8.0116 9.73058 8.56677 9.34224C8.94402 9.07891 9.03877 8.54807 8.7751 8.17057C8.51144 7.79307 8.00652 7.72474 7.62927 7.98808C7.35185 8.18224 7.0126 8.27474 6.66577 8.27474C5.74527 8.27474 4.9991 7.52891 4.9991 6.60807C4.9991 5.68724 5.74527 4.94141 6.66577 4.94141C6.9376 4.94141 7.18627 5.0014 7.42094 5.1239C7.82927 5.3364 8.35444 5.19308 8.56677 4.78475C8.77919 4.37725 8.61052 3.8514 8.20227 3.63973C7.73135 3.39473 7.20694 3.27474 6.66577 3.27474ZM12.9158 4.10807C14.0663 4.10807 14.9991 5.04057 14.9991 6.19141C14.9991 7.34224 14.0663 8.27474 12.9158 8.27474C11.7652 8.27474 10.8324 7.34224 10.8324 6.19141C10.8324 5.04057 11.7652 4.10807 12.9158 4.10807ZM4.21785 11.0614C2.68944 11.6922 1.66577 13.2381 1.66577 14.9414V16.6081C1.66577 17.0681 2.03885 17.4414 2.4991 17.4414H5.83244C6.29269 17.4414 6.66577 17.0681 6.66577 16.6081C6.66577 16.1481 6.29269 15.7747 5.83244 15.7747H3.33244V14.9414C3.33244 14.0047 3.88802 13.1448 4.5266 12.7664C5.12719 13.0198 5.76252 13.2114 6.32752 13.2589C6.78619 13.2981 7.19977 12.9522 7.23869 12.4931C7.2776 12.0347 6.94619 11.6464 6.4876 11.6073C6.12177 11.5764 5.72194 11.4664 5.25952 11.2697C5.14785 11.2222 5.08302 11.1847 4.86894 11.0872C4.65902 10.9914 4.43102 10.9731 4.21785 11.0614ZM10.0512 11.0614C8.52277 11.6922 7.4991 13.2381 7.4991 14.9414V16.6081C7.4991 17.0681 7.87219 17.4414 8.33244 17.4414H17.4991C17.9593 17.4414 18.3324 17.0681 18.3324 16.6081V14.9414C18.3324 13.2781 17.3031 11.7697 15.7803 11.1131C15.566 11.0206 15.3163 11.0181 15.1033 11.1131C14.3659 11.4439 13.6476 11.6081 12.9158 11.6081C12.1864 11.6081 11.4656 11.4347 10.7023 11.0872C10.4924 10.9914 10.2644 10.9731 10.0512 11.0614ZM10.3716 12.7664C11.1589 13.0648 12.1082 13.2747 12.9158 13.2747C13.717 13.2747 14.627 13.0789 15.3984 12.7939C16.1506 13.2222 16.6658 14.0239 16.6658 14.9414V15.7747H9.16577V14.9414C9.16577 13.9706 9.71235 13.1523 10.3716 12.7664Z" fill="#6887BA"/>
</svg>
