<svg width="20" height="20" viewBox="0 0 20 20" fill="none" xmlns="http://www.w3.org/2000/svg">
<path d="M10.0002 3.33105C7.53441 3.33105 5.45691 4.54271 3.75024 6.53438C3.16607 7.21521 2.65524 7.94272 2.2394 8.66938C1.98857 9.10938 1.83523 9.44937 1.74523 9.65937C1.65523 9.86854 1.65523 10.1269 1.74523 10.336C1.83523 10.546 1.98857 10.886 2.2394 11.326C2.65524 12.0527 3.16607 12.7802 3.75024 13.461C5.45691 15.4527 7.53441 16.6644 10.0002 16.6644C12.4661 16.6644 14.5436 15.4527 16.2502 13.461C16.8336 12.7802 17.3453 12.0527 17.7603 11.326C18.0119 10.886 18.1652 10.546 18.2552 10.336C18.3452 10.1269 18.3452 9.86854 18.2552 9.65937C18.1652 9.44937 18.0119 9.10938 17.7603 8.66938C17.3453 7.94272 16.8336 7.21521 16.2502 6.53438C14.5436 4.54271 12.4661 3.33105 10.0002 3.33105ZM10.0002 4.99772C11.9094 4.99772 13.5819 5.97355 15.0002 7.62772C15.5102 8.22272 15.9361 8.86272 16.3019 9.50271C16.4311 9.72855 16.4869 9.84521 16.5627 9.99771C16.4869 10.1502 16.4311 10.2669 16.3019 10.4927C15.9361 11.1327 15.5102 11.7727 15.0002 12.3677C13.5819 14.0219 11.9094 14.9977 10.0002 14.9977C8.09107 14.9977 6.41857 14.0219 5.00024 12.3677C4.49024 11.7727 4.0644 11.1327 3.69774 10.4927C3.5694 10.2669 3.51357 10.1502 3.43774 9.99771C3.51357 9.84521 3.5694 9.72855 3.69774 9.50271C4.0644 8.86272 4.49024 8.22272 5.00024 7.62772C6.41857 5.97355 8.09107 4.99772 10.0002 4.99772ZM10.0002 6.66438C8.15941 6.66438 6.66691 8.15688 6.66691 9.99771C6.66691 11.8385 8.15941 13.331 10.0002 13.331C11.8411 13.331 13.3336 11.8385 13.3336 9.99771C13.3336 9.53771 12.9602 9.16438 12.5002 9.16438C12.0402 9.16438 11.6669 9.53771 11.6669 9.99771C11.6669 10.9185 10.9202 11.6644 10.0002 11.6644C9.07941 11.6644 8.33357 10.9185 8.33357 9.99771C8.33357 9.07688 9.07941 8.33105 10.0002 8.33105C10.2044 8.33105 10.4136 8.36521 10.5994 8.43521C11.0294 8.59771 11.5044 8.37105 11.6669 7.94022C11.8294 7.51022 11.6027 7.03521 11.1719 6.87271C10.7986 6.73188 10.4061 6.66438 10.0002 6.66438Z" fill="#385BAE"/>
</svg>
