<svg width="20" height="20" viewBox="0 0 20 20" fill="none" xmlns="http://www.w3.org/2000/svg">
<path opacity="0.988987" d="M9.99911 1.67822C5.39661 1.67822 1.66577 5.40907 1.66577 10.0116C1.66577 14.6141 5.39661 18.3449 9.99911 18.3449C14.6016 18.3449 18.3324 14.6141 18.3324 10.0116C18.3324 5.40907 14.6016 1.67822 9.99911 1.67822ZM9.99911 3.34489C13.6808 3.34489 16.6658 6.3299 16.6658 10.0116C16.6658 13.6933 13.6808 16.6783 9.99911 16.6783C6.31744 16.6783 3.33244 13.6933 3.33244 10.0116C3.33244 6.3299 6.31744 3.34489 9.99911 3.34489ZM9.99911 5.8449C9.53911 5.8449 9.16577 6.21823 9.16577 6.67824C9.16577 7.13824 9.53911 7.51157 9.99911 7.51157C10.4591 7.51157 10.8324 7.13824 10.8324 6.67824C10.8324 6.21823 10.4591 5.8449 9.99911 5.8449ZM9.16577 8.34491C8.70577 8.34491 8.33244 8.71824 8.33244 9.17824C8.33244 9.57991 8.63161 9.8799 9.00911 9.9599L8.51493 12.3549C8.3216 13.3224 9.01327 14.1783 9.99911 14.1783H10.8324C11.2924 14.1783 11.6658 13.8049 11.6658 13.3449C11.6658 12.8849 11.2924 12.5116 10.8324 12.5116H10.1816L10.8066 9.3349C10.9099 8.81906 10.5249 8.34491 9.99911 8.34491C9.8941 8.34491 9.30077 8.34491 9.16577 8.34491Z" fill="#168472"/>
</svg>
