<svg width="331" height="12" viewBox="0 0 331 12" fill="none" xmlns="http://www.w3.org/2000/svg">
<path d="M1 10.5L5.86013 3.54954C7.42498 1.31165 10.7226 1.26499 12.3501 3.45772L16.2209 8.67269C17.8202 10.8273 21.0455 10.8273 22.6447 8.67269L26.6123 3.32731C28.2116 1.17268 31.4369 1.17268 33.0361 3.32731L37.0037 8.67269C38.603 10.8273 41.8283 10.8273 43.4275 8.67269L47.3951 3.32731C48.9944 1.17268 52.2197 1.17268 53.8189 3.32731L57.7865 8.67269C59.3858 10.8273 62.6111 10.8273 64.2104 8.67269L68.1779 3.32731C69.7772 1.17268 73.0025 1.17268 74.6018 3.32731L78.5693 8.67269C80.1686 10.8273 83.3939 10.8273 84.9932 8.67269L88.9607 3.32731C90.56 1.17268 93.7853 1.17268 95.3846 3.32731L99.3521 8.67269C100.951 10.8273 104.177 10.8273 105.776 8.67269L109.744 3.32731C111.343 1.17268 114.568 1.17268 116.167 3.32731L120.135 8.67269C121.734 10.8273 124.96 10.8273 126.559 8.67269L130.526 3.32731C132.126 1.17268 135.351 1.17268 136.95 3.32731L140.918 8.67269C142.517 10.8273 145.742 10.8273 147.342 8.67269L151.309 3.32731C152.908 1.17268 156.134 1.17268 157.733 3.32731L161.701 8.67269C163.3 10.8273 166.525 10.8273 168.124 8.67269L172.092 3.32731C173.691 1.17268 176.917 1.17268 178.516 3.32731L182.483 8.67269C184.083 10.8273 187.308 10.8273 188.907 8.67269L192.875 3.32731C194.474 1.17268 197.699 1.17268 199.299 3.32731L203.266 8.67269C204.865 10.8273 208.091 10.8273 209.69 8.67269L213.658 3.32731C215.257 1.17268 218.482 1.17268 220.081 3.32731L224.049 8.67269C225.648 10.8273 228.874 10.8273 230.473 8.67269L234.44 3.32731C236.04 1.17268 239.265 1.17268 240.864 3.32731L244.832 8.67269C246.431 10.8273 249.656 10.8273 251.256 8.67269L255.223 3.32731C256.822 1.17268 260.048 1.17268 261.647 3.32731L265.615 8.67269C267.214 10.8273 270.439 10.8273 272.038 8.67269L276.006 3.32731C277.605 1.17268 280.831 1.17268 282.43 3.32731L286.397 8.67269C287.997 10.8273 291.222 10.8273 292.821 8.67269L296.789 3.32731C298.388 1.17268 301.613 1.17268 303.213 3.32731L307.18 8.67269C308.78 10.8273 312.005 10.8273 313.604 8.67269L317.693 3.16369C319.256 1.05859 322.387 1.00051 324.026 3.04622L330 10.5" stroke="#FFAABC" stroke-width="2" stroke-linecap="round"/>
</svg>
